<?xml version="1.0" encoding="utf-8"?>
<svg version="1.1" xmlns:xlink="http://www.w3.org/1999/xlink" width="12px" height="12px" viewBox="852 475  12 12" xmlns="http://www.w3.org/2000/svg">
  <path d="M 858 475  C 861.36 475  864 477.64  864 481  C 864 484.36  861.36 487  858 487  C 854.64 487  852 484.36  852 481  C 852 477.64  854.64 475  858 475  Z " fill-rule="nonzero" fill="#ffffff" stroke="none" />
  <path d="M 858 475.5  C 861.08 475.5  863.5 477.92  863.5 481  C 863.5 484.08  861.08 486.5  858 486.5  C 854.92 486.5  852.5 484.08  852.5 481  C 852.5 477.92  854.92 475.5  858 475.5  Z " stroke-width="1" stroke="#797979" fill="none" />
  <path d="M 858 484  C 856.32 484  855 482.68  855 481  C 855 479.32  856.32 478  858 478  C 859.68 478  861 479.32  861 481  C 861 482.68  859.68 484  858 484  " fill-rule="nonzero" fill="#797979" stroke="none" />
</svg>