<?xml version="1.0" encoding="utf-8"?>
<svg version="1.1" xmlns:xlink="http://www.w3.org/1999/xlink" width="79px" height="28px" xmlns="http://www.w3.org/2000/svg">
  <defs>
    <mask fill="white" id="clip19">
      <path d="M 0 24.5  L 0 3.5  C 0 1.54  1.2414285714286 0  2.82142857142857 0  L 45.5942857142853 0  L 76.1785714285714 0  C 77.7585714285714 0  79 1.54  79 3.5  L 79 24.5  C 79 26.46  77.7585714285714 28  76.1785714285714 28  L 2.82142857142857 28  C 1.2414285714286 28  0 26.46  0 24.5  Z " fill-rule="evenodd" />
    </mask>
  </defs>
  <g transform="matrix(1 0 0 1 -677 -121 )">
    <path d="M 0 24.5  L 0 3.5  C 0 1.54  1.2414285714286 0  2.82142857142857 0  L 45.5942857142853 0  L 76.1785714285714 0  C 77.7585714285714 0  79 1.54  79 3.5  L 79 24.5  C 79 26.46  77.7585714285714 28  76.1785714285714 28  L 2.82142857142857 28  C 1.2414285714286 28  0 26.46  0 24.5  Z " fill-rule="nonzero" fill="#36c2aa" stroke="none" transform="matrix(1 0 0 1 677 121 )" />
    <path d="M 0 24.5  L 0 3.5  C 0 1.54  1.2414285714286 0  2.82142857142857 0  L 45.5942857142853 0  L 76.1785714285714 0  C 77.7585714285714 0  79 1.54  79 3.5  L 79 24.5  C 79 26.46  77.7585714285714 28  76.1785714285714 28  L 2.82142857142857 28  C 1.2414285714286 28  0 26.46  0 24.5  Z " stroke-width="2" stroke="#797979" fill="none" transform="matrix(1 0 0 1 677 121 )" mask="url(#clip19)" />
  </g>
</svg>