<?xml version="1.0" encoding="utf-8"?>
<svg version="1.1" xmlns:xlink="http://www.w3.org/1999/xlink" width="120px" height="70px" xmlns="http://www.w3.org/2000/svg">
  <defs>
    <filter x="87px" y="0px" width="120px" height="70px" filterUnits="userSpaceOnUse" id="filter27">
      <feOffset dx="5" dy="5" in="SourceAlpha" result="shadowOffsetInner" />
      <feGaussianBlur stdDeviation="2.5" in="shadowOffsetInner" result="shadowGaussian" />
      <feComposite in2="shadowGaussian" operator="atop" in="SourceAlpha" result="shadowComposite" />
      <feColorMatrix type="matrix" values="0 0 0 0 0  0 0 0 0 0  0 0 0 0 0  0 0 0 0.349019607843137 0  " in="shadowComposite" />
    </filter>
    <g id="widget28">
      <path d="M 111.030056647916 0.5  C 111.030056647916 0.5  107.293773535682 1.51898630333669  107.293773535682 1.51898630333669  C 107.293773535682 1.51898630333669  87.5899275820155 30  87.5899275820155 30  C 87.5899275820155 30  107.293773535682 58.4810136966633  107.293773535682 58.4810136966633  C 107.293773535682 58.4810136966633  111.030056647916 59.5  111.030056647916 59.5  C 111.030056647916 59.5  196.5 59.5  196.5 59.5  C 196.5 59.5  196.5 0.499999999999998  196.5 0.499999999999998  C 196.5 0.499999999999998  111.030056647916 0.5  111.030056647916 0.5  Z " fill-rule="nonzero" fill="#3bb19c" stroke="none" />
      <path d="M 111.030056647916 0.5  C 111.030056647916 0.5  107.293773535682 1.51898630333669  107.293773535682 1.51898630333669  C 107.293773535682 1.51898630333669  87.5899275820155 30  87.5899275820155 30  C 87.5899275820155 30  107.293773535682 58.4810136966633  107.293773535682 58.4810136966633  C 107.293773535682 58.4810136966633  111.030056647916 59.5  111.030056647916 59.5  C 111.030056647916 59.5  196.5 59.5  196.5 59.5  C 196.5 59.5  196.5 0.499999999999998  196.5 0.499999999999998  C 196.5 0.499999999999998  111.030056647916 0.5  111.030056647916 0.5  Z " stroke-width="1" stroke="#3bb19c" fill="none" />
    </g>
  </defs>
  <g transform="matrix(1 0 0 1 -87 0 )">
    <use xlink:href="#widget28" filter="url(#filter27)" />
    <use xlink:href="#widget28" />
  </g>
</svg>