<?xml version="1.0" encoding="utf-8"?>
<svg version="1.1" xmlns:xlink="http://www.w3.org/1999/xlink" width="48px" height="32px" xmlns="http://www.w3.org/2000/svg">
  <g transform="matrix(1 0 0 1 -811 -941 )">
    <path d="M 48 22  C 48 16.72  43.89 12.44  38.71 12.07  C 37.35 5.19  31.28 0  24 0  C 18.22 0  13.21 3.28  10.7 8.07  C 4.69 8.72  0 13.81  0 20  C 0 26.63  5.37 32  12 32  L 38 32  C 43.52 32  48 27.52  48 22  Z M 44 22  C 44 25.31  41.31 28  38 28  L 12 28  C 7.58 28  4 24.42  4 20  C 4 15.58  7.58 12  12 12  L 13.42 12  C 14.73 7.39  18.96 4  24 4  C 30.08 4  35 8.92  35 15  L 35 16  L 38 16  C 41.31 16  44 18.69  44 22  Z " fill-rule="nonzero" fill="#000000" stroke="none" transform="matrix(1 0 0 1 811 941 )" />
  </g>
</svg>