<?xml version="1.0" encoding="utf-8"?>
<svg version="1.1" xmlns:xlink="http://www.w3.org/1999/xlink" width="38px" height="33px" xmlns="http://www.w3.org/2000/svg">
  <g transform="matrix(1 0 0 1 -25 -76 )">
    <path d="M 15.675 18.15  C 15.675 17.0115  14.611 16.0875  13.3 16.0875  C 11.989 16.0875  10.925 17.0115  10.925 18.15  C 10.925 19.2885  11.989 20.2125  13.3 20.2125  C 14.611 20.2125  15.675 19.2885  15.675 18.15  Z M 27.075 18.15  C 27.075 17.0115  26.011 16.0875  24.7 16.0875  C 23.389 16.0875  22.325 17.0115  22.325 18.15  C 22.325 19.2885  23.389 20.2125  24.7 20.2125  C 26.011 20.2125  27.075 19.2885  27.075 18.15  Z M 38 16.5  C 38 7.38375  29.4975 0  19 0  C 8.5025 0  0 7.38375  0 16.5  C 0 25.61625  8.5025 33  19 33  C 29.4975 33  38 25.61625  38 16.5  Z M 34.2 16.5  C 34.2 23.7765  27.379 29.7  19 29.7  C 10.621 29.7  3.8 23.7765  3.8 16.5  C 3.8 16.0215  3.838 15.55125  3.895 15.08925  C 8.3695 13.365  11.9415 10.1805  13.794 6.22875  C 17.233 10.43625  22.8855 13.2  29.2885 13.2  C 30.761 13.2  32.1955 13.04325  33.5635 12.76275  C 33.972 13.95075  34.2 15.20475  34.2 16.5  Z " fill-rule="nonzero" fill="#000000" stroke="none" transform="matrix(1 0 0 1 25 76 )" />
  </g>
</svg>