<?xml version="1.0" encoding="utf-8"?>
<svg version="1.1" xmlns:xlink="http://www.w3.org/1999/xlink" width="59px" height="64px" xmlns="http://www.w3.org/2000/svg">
  <g transform="matrix(1 0 0 1 -805 -685 )">
    <path d="M 49.9937688698921 7.04  C 49.6988545534346 7.584  49.1254100492118 7.904  48.5355814162969 7.904  C 48.2734353572235 7.904  48.0276734268423 7.84  47.7819114964611 7.728  C 41.506790207394 4.56  36.0508753529309 3.2  29.5299921334825 3.2  C 23.0254930427262 3.2  16.8978289118878 4.72  11.2780727705039 7.712  C 10.4752504645919 8.128  9.49220274306706 7.856  9.04983126838087 7.072  C 8.62384392238675 6.288  8.90237411015214 5.328  9.70519641606412 4.896  C 15.8164764182105 1.648  22.4848167958875 0  29.5299921334825 0  C 36.5096309563092 0  42.6045268297634 1.504  49.2892513361326 4.88  C 50.0920736420446 5.28  50.4033720871941 6.256  49.9937688698921 7.04  Z M 2.98770365231078 24.048  C 2.66002107846916 24.48  2.15211308901464 24.704  1.64420509956011 24.704  C 1.31652252571848 24.704  0.988839951876859 24.608  0.693925635419395 24.416  C -0.0433601557242644 23.904  -0.22358557133716 22.912  0.300706546809443 22.192  C 3.54476402784155 17.712  7.68994858693812 14.192  12.6051871945625 11.712  C 22.9108041418817 6.512  36.083643610315 6.496  46.4056446863263 11.68  C 51.3044991652586 14.144  55.4332995956631 17.632  58.6937412053873 22.08  C 59.2180333235339 22.8  59.0541920366131 23.792  58.3169062454694 24.304  C 57.5796204543257 24.816  56.5474203467246 24.656  56.023128228578 23.936  C 53.0739850640034 19.904  49.3384037222088 16.736  44.9146889753469 14.528  C 35.5101991060922 9.808  23.5006327747966 9.824  14.112527034234 14.56  C 9.67242815867996 16.8  5.92046268819334 19.984  2.98770365231078 24.048  Z M 23.2712549731075 62.832  C 22.97634065665 63.168  22.5503533106559 63.312  22.1407500933538 63.312  C 21.7147627473597 63.312  21.3051595300577 63.152  20.9774769562161 62.832  C 18.143022692486 60.032  16.6029145954304 58.256  14.3910572219994 54.4  C 12.1300474624922 50.464  10.9340060679702 45.648  10.9340060679702 40.496  C 10.9340060679702 30.992  19.2571434435475 23.248  29.4972238760984 23.248  C 39.7373043086492 23.248  48.0604416842265 30.976  48.0604416842265 40.496  C 48.0604416842265 41.376  47.3231558930828 42.096  46.4220288150184 42.096  C 45.5209017369539 42.096  44.7836159458102 41.376  44.7836159458102 40.496  C 44.7836159458102 32.752  37.9350501525202 26.448  29.4972238760984 26.448  C 21.0757817283686 26.448  14.2108318063865 32.752  14.2108318063865 40.496  C 14.2108318063865 45.104  15.2594160426797 49.36  17.2418956144215 52.832  C 19.3554482157 56.512  20.764483283219 58.096  23.2876391017995 60.576  C 23.9266201207907 61.2  23.9266201207907 62.224  23.2712549731075 62.832  Z M 49.6169339099742 57.04  C 47.6999908530007 57.376  46.0779621124846 57.392  45.6192065091064 57.392  C 41.719783880391 57.392  38.295500983746 56.432  35.4610467200159 54.56  C 30.5949604984678 51.328  27.6785855912773 46.08  27.6785855912773 40.512  C 27.6785855912773 39.632  28.415871382421 38.912  29.3169984604855 38.912  C 30.2181255385499 38.912  30.9554113296936 39.632  30.9554113296936 40.512  C 30.9554113296936 45.008  33.3311099900454 49.264  37.3124532622211 51.904  C 39.6226154078046 53.44  42.3423807706901 54.192  45.6192065091064 54.192  C 46.4056446863263 54.192  47.7327591103848 54.112  49.0434894057514 53.888  C 49.9282323551237 53.728  50.780207047112 54.32  50.9440483340328 55.184  C 51.1078896209536 56.048  50.5016768593466 56.88  49.6169339099742 57.04  Z M 40.5892790006374 62.832  C 40.3926694563324 63.536  39.7373043086492 64  39.0164026461976 64  C 38.8689454879689 64  38.7214883297401 63.984  38.5904153002035 63.936  C 33.3638782474295 62.544  29.9559794794766 60.656  26.4170076819871 57.216  C 21.8458357768964 52.768  19.3226799583159 46.832  19.3226799583159 40.512  C 19.3226799583159 35.312  23.8446994773303 31.088  29.4153032326379 31.088  C 34.9859069879456 31.088  39.50792650696 35.312  39.50792650696 40.512  C 39.50792650696 43.936  42.5717585723792 46.736  46.3237240428659 46.736  C 50.0756895133525 46.736  53.1395215787717 43.952  53.1395215787717 40.512  C 53.1395215787717 28.448  42.4898379289188 18.64  29.3989191039459 18.64  C 20.0763498781516 18.64  11.5729870869614 23.696  7.73910097301435 31.536  C 6.461138935032 34.128  5.82215791604083 37.152  5.82215791604083 40.512  C 5.82215791604083 43.008  6.05153571772997 46.944  8.00124703208765 52.048  C 8.31254547723719 52.88  7.88655813124308 53.792  7.03458343925485 54.112  C 6.18260874726662 54.416  5.24871341181799 54  4.92103083797636 53.168  C 3.31538622615239 48.96  2.52894804893249 44.832  2.52894804893249 40.512  C 2.52894804893249 36.672  3.28261796876823 33.184  4.77357367974763 30.16  C 9.14813604053334 21.232  18.8147719688613 15.456  29.3825349752538 15.456  C 44.2757079563557 15.456  56.3999631884959 26.704  56.3999631884959 40.528  C 56.3999631884959 45.728  51.8615595407893 49.952  46.3073399141738 49.952  C 40.7531202875582 49.952  36.2147166398517 45.728  36.2147166398517 40.528  C 36.2147166398517 37.104  33.1508845744325 34.304  29.3989191039459 34.304  C 25.6469536334592 34.304  22.58312156804 37.088  22.58312156804 40.528  C 22.58312156804 45.984  24.7622106840868 51.12  28.7107856988784 54.96  C 31.8073860216818 57.968  34.8220657010248 59.632  39.4423899921917 60.864  C 40.310748812872 61.104  40.8350409310186 61.984  40.5892790006374 62.832  Z " fill-rule="nonzero" fill="#000000" stroke="none" transform="matrix(1 0 0 1 805 685 )" />
  </g>
</svg>