<?xml version="1.0" encoding="utf-8"?>
<svg version="1.1" xmlns:xlink="http://www.w3.org/1999/xlink" width="36px" height="36px" xmlns="http://www.w3.org/2000/svg">
  <g transform="matrix(1 0 0 1 -317 -939 )">
    <path d="M 24 24  L 24 12  L 12 12  L 12 24  L 24 24  Z M 20 16  L 20 20  L 16 20  L 16 16  L 20 16  Z M 32 16  L 36 16  L 36 12  L 32 12  L 32 8  C 32 5.79  30.21 4  28 4  L 24 4  L 24 0  L 20 0  L 20 4  L 16 4  L 16 0  L 12 0  L 12 4  L 8 4  C 5.79 4  4 5.79  4 8  L 4 12  L 0 12  L 0 16  L 4 16  L 4 20  L 0 20  L 0 24  L 4 24  L 4 28  C 4 30.21  5.79 32  8 32  L 12 32  L 12 36  L 16 36  L 16 32  L 20 32  L 20 36  L 24 36  L 24 32  L 28 32  C 30.21 32  32 30.21  32 28  L 32 24  L 36 24  L 36 20  L 32 20  L 32 16  Z M 28 8  L 28 28  L 8 28  L 8 8  L 28 8  Z " fill-rule="nonzero" fill="#000000" stroke="none" transform="matrix(1 0 0 1 317 939 )" />
  </g>
</svg>