<?xml version="1.0" encoding="utf-8"?>
<svg version="1.1" xmlns:xlink="http://www.w3.org/1999/xlink" width="38px" height="27px" xmlns="http://www.w3.org/2000/svg">
  <g transform="matrix(1 0 0 1 -25 -322 )">
    <path d="M 38 20.25  C 38 19.4175  37.0605555555556 18.75  35.8888888888889 18.75  C 33.2605555555556 18.75  30.7166666666667 18.45  28.3522222222222 17.895  C 27.6238888888889 17.73  26.79 17.85  26.2094444444444 18.2625  L 21.565 21.57  C 15.58 19.41  10.7033333333333 15.9375  7.65277777777778 11.6925  L 12.2972222222222 8.3775  C 12.8777777777778 7.965  13.0466666666667 7.3725  12.8144444444444 6.855  C 12.0333333333333 5.175  11.6111111111111 3.3675  11.6111111111111 1.5  C 11.6111111111111 0.6675  10.6716666666667 0  9.5 0  L 2.11111111111111 0  C 0.95 0  0 0.6675  0 1.5  C 0 15.585  16.0655555555556 27  35.8888888888889 27  C 37.0605555555556 27  38 26.3325  38 25.5  L 38 20.25  Z M 38 0  L 19 0  L 19 15  L 25.3333333333333 11  L 38 11  L 38 0  Z " fill-rule="nonzero" fill="#000000" stroke="none" transform="matrix(1 0 0 1 25 322 )" />
  </g>
</svg>