<?xml version="1.0" encoding="utf-8"?>
<svg version="1.1" xmlns:xlink="http://www.w3.org/1999/xlink" width="45px" height="31px" xmlns="http://www.w3.org/2000/svg">
  <g transform="matrix(1 0 0 1 -22 -137 )">
    <path d="M 18 27.9  C 18 26.18725  15.98625 24.8  13.5 24.8  C 11.01375 24.8  9.0225 26.18725  9.0225 27.9  C 9.0225 29.61275  11.01375 31  13.5 31  C 15.98625 31  18 29.61275  18 27.9  Z M 7.34625 0  L 0 0  L 0 3.1  L 4.5 3.1  L 12.58875 14.85675  L 9.55125 18.65425  C 9.2025 19.10375  9 19.6075  9 20.15  C 9 21.86275  11.01375 23.25  13.5 23  L 40.5 23  L 40.5 20  L 14.45625 20  C 14.14125 20.15  13.89375 19.9795  13.89375 19.7625  C 13.89375 19.69275  13.91625 19.63075  13.96125 19.5765  L 15.975 17  L 32.7375 17  C 34.425 17.05  35.89875 16.40675  36.675 15.4535  L 44.71875 5.394  C 44.89875 5.177  45 4.92125  45 4.65  C 45 3.78975  43.9875 3.1  42.75 3.1  L 9.48375 3.1  L 7.34625 0  Z M 40.5 27.9  C 40.5 26.18725  38.48625 24.8  36 24.8  C 33.51375 24.8  31.5225 26.18725  31.5225 27.9  C 31.5225 29.61275  33.51375 31  36 31  C 38.48625 31  40.5 29.61275  40.5 27.9  Z " fill-rule="nonzero" fill="#000000" stroke="none" transform="matrix(1 0 0 1 22 137 )" />
  </g>
</svg>