<?xml version="1.0" encoding="utf-8"?>
<svg version="1.1" xmlns:xlink="http://www.w3.org/1999/xlink" width="39px" height="31px" xmlns="http://www.w3.org/2000/svg">
  <g transform="matrix(1 0 0 1 -24 -197 )">
    <path d="M 36.8333333333333 4  L 36.8333333333333 0  L 2.16666666666667 0  L 2.16666666666667 4  L 36.8333333333333 4  Z M 36.8333333333333 19.375  L 39 19.375  L 39 15.5  L 36.8333333333333 6  L 2.16666666666667 6  L 0 15.5  L 0 19.375  L 2.16666666666667 19.375  L 2.16666666666667 31  L 23.8333333333333 31  L 23.8333333333333 19.375  L 32 19.375  L 32 31  L 36.8333333333333 31  L 36.8333333333333 19.375  Z M 19.5 19  L 19.5 27  L 6.5 27  L 6.5 19  L 19.5 19  Z " fill-rule="nonzero" fill="#000000" stroke="none" transform="matrix(1 0 0 1 24 197 )" />
  </g>
</svg>