<?xml version="1.0" encoding="utf-8"?>
<svg version="1.1" xmlns:xlink="http://www.w3.org/1999/xlink" width="40px" height="31px" xmlns="http://www.w3.org/2000/svg">
  <g transform="matrix(1 0 0 1 -24 -256 )">
    <path d="M 24 9.96428571428572  C 24 13.02  26.24 15.5  29 15.5  C 31.76 15.5  33.98 13.02  33.98 9.96428571428572  C 33.98 6.90857142857143  31.76 4.42857142857143  29 4.42857142857143  C 26.24 4.42857142857143  24 6.90857142857143  24 9.96428571428572  Z M 8 6.64285714285714  C 8 10.3075  10.69 13.2857142857143  14 13.2857142857143  C 17.31 13.2857142857143  19.98 10.3075  19.98 6.64285714285714  C 19.98 2.97821428571429  17.31 0  14 0  C 10.69 0  8 2.97821428571429  8 6.64285714285714  Z M 40 26.0178571428571  C 40 21.9657142857143  32.67 19.9285714285714  29 19.9285714285714  C 25.33 19.9285714285714  18 21.9657142857143  18 26.0178571428571  L 18 31  L 40 31  L 40 26.0178571428571  Z M 18.74 18.3342857142857  C 17 17.9246428571429  15.31 17.7142857142857  14 17.7142857142857  C 9.33 17.7142857142857  0 20.305  0 25.4642857142857  L 0 31  L 14 31  L 14 26.0178571428571  C 14 24.1357142857143  14.67 20.8475  18.74 18.3342857142857  Z " fill-rule="nonzero" fill="#000000" stroke="none" transform="matrix(1 0 0 1 24 256 )" />
  </g>
</svg>