<?xml version="1.0" encoding="utf-8"?>
<!-- Generator: Adobe Illustrator 15.0.0, SVG Export Plug-In . SVG Version: 6.00 Build 0)  -->
<!DOCTYPE svg PUBLIC "-//W3C//DTD SVG 1.1//EN" "http://www.w3.org/Graphics/SVG/1.1/DTD/svg11.dtd">
<svg version="1.1" id="Layer_1" xmlns="http://www.w3.org/2000/svg" xmlns:xlink="http://www.w3.org/1999/xlink" x="0px" y="0px"
	 width="64px" height="64px" viewBox="0 0 64 64" enable-background="new 0 0 64 64" xml:space="preserve">
<title>toolbox</title>
<path d="M5,54h54c0.553,0,1-0.447,1-1V17c0-0.552-0.447-1-1-1H5c-0.552,0-1,0.448-1,1v36C4,53.553,4.448,54,5,54z M6,52V36h10v3
	c0,0.553,0.448,1,1,1h4c0.552,0,1-0.447,1-1v-3h20v3c0,0.553,0.447,1,1,1h4c0.553,0,1-0.447,1-1v-3h10v16H6z M20,38h-2v-6h2V38z
	 M46,38h-2v-6h2V38z M58,18v16H48v-3c0-0.552-0.447-1-1-1h-4c-0.553,0-1,0.448-1,1v3H22v-3c0-0.552-0.448-1-1-1h-4
	c-0.552,0-1,0.448-1,1v3H6V18H58z"/>
<path d="M25,15c0.552,0,1-0.448,1-1c0-1.104,0.896-2,2-2h8c1.104,0,2,0.896,2,2c0,0.552,0.447,1,1,1s1-0.448,1-1
	c0-2.209-1.791-4-4-4h-8c-2.209,0-4,1.791-4,4C24,14.552,24.448,15,25,15z"/>
</svg>
