<?xml version="1.0" encoding="utf-8"?>
<svg version="1.1" xmlns:xlink="http://www.w3.org/1999/xlink" width="92px" height="42px" xmlns="http://www.w3.org/2000/svg">
  <g transform="matrix(1 0 0 1 -1348 -64 )">
    <path d="M 1348.5 67  A 2.5 2.5 0 0 1 1351 64.5 L 1437 64.5  A 2.5 2.5 0 0 1 1439.5 67 L 1439.5 103  A 2.5 2.5 0 0 1 1437 105.5 L 1351 105.5  A 2.5 2.5 0 0 1 1348.5 103 L 1348.5 67  Z " fill-rule="nonzero" fill="#ffffff" stroke="none" />
    <path d="M 1348.5 67  A 2.5 2.5 0 0 1 1351 64.5 L 1437 64.5  A 2.5 2.5 0 0 1 1439.5 67 L 1439.5 103  A 2.5 2.5 0 0 1 1437 105.5 L 1351 105.5  A 2.5 2.5 0 0 1 1348.5 103 L 1348.5 67  Z " stroke-width="1" stroke="#1abc9c" fill="none" />
  </g>
</svg>