<?xml version="1.0" encoding="utf-8"?>
<!-- Generator: Adobe Illustrator 15.0.0, SVG Export Plug-In . SVG Version: 6.00 Build 0)  -->
<!DOCTYPE svg PUBLIC "-//W3C//DTD SVG 1.1//EN" "http://www.w3.org/Graphics/SVG/1.1/DTD/svg11.dtd">
<svg version="1.1" id="Layer_1" xmlns="http://www.w3.org/2000/svg" xmlns:xlink="http://www.w3.org/1999/xlink" x="0px" y="0px"
	 width="64px" height="64px" viewBox="0 0 64 64" enable-background="new 0 0 64 64" xml:space="preserve">
<title>shop_bag</title>
<path d="M7,60h50c0.553,0,1-0.447,1-1V21c0-0.552-0.447-1-1-1H44v-4c0-6.627-5.373-12-12-12c-6.627,0-12,5.373-12,12v4H7
	c-0.552,0-1,0.448-1,1v38C6,59.553,6.448,60,7,60z M22,16c0-5.523,4.477-10,10-10c5.523,0,10,4.477,10,10v4H22V16z M8,22h12v5
	c0,0.552,0.448,1,1,1s1-0.448,1-1v-5h20v5c0,0.552,0.447,1,1,1s1-0.448,1-1v-5h12v36H8V22z"/>
</svg>
