<?xml version="1.0" encoding="utf-8"?>
<svg version="1.1" xmlns:xlink="http://www.w3.org/1999/xlink" width="21px" height="19px" xmlns="http://www.w3.org/2000/svg">
  <g transform="matrix(1 0 0 1 -1216 -127 )">
    <path d="M 12.87890625 11.65234375  C 13.9852764423077 10.6513421474359  14.5384615384615 9.44671474358974  14.5384615384615 8.03846153846154  C 14.5384615384615 6.63020833333333  13.9852764423077 5.42558092948718  12.87890625 4.42457932692308  C 11.7725360576923 3.42357772435897  10.4411057692308 2.92307692307692  8.88461538461539 2.92307692307692  C 7.328125 2.92307692307692  5.99669471153846 3.42357772435897  4.89032451923077 4.42457932692308  C 3.78395432692308 5.42558092948718  3.23076923076923 6.63020833333333  3.23076923076923 8.03846153846154  C 3.23076923076923 9.44671474358974  3.78395432692308 10.6513421474359  4.89032451923077 11.65234375  C 5.99669471153846 12.6533453525641  7.328125 13.1538461538462  8.88461538461539 13.1538461538462  C 10.4411057692308 13.1538461538462  11.7725360576923 12.6533453525641  12.87890625 11.65234375  Z M 20.5330528846154 16.5108173076923  C 20.8443509615385 16.7924679487179  21 17.135016025641  21 17.5384615384615  C 21 17.9342948717949  20.8401442307692 18.2768429487179  20.5204326923077 18.5661057692308  C 20.2007211538462 18.8553685897436  19.8221153846154 19  19.3846153846154 19  C 18.9302884615385 19  18.5516826923077 18.8553685897436  18.2487980769231 18.5661057692308  L 13.9200721153846 14.6610576923077  C 12.4140625 15.604967948718  10.7355769230769 16.0769230769231  8.88461538461539 16.0769230769231  C 7.68149038461539 16.0769230769231  6.53094951923077 15.8656850961538  5.43299278846154 15.4432091346154  C 4.33503605769231 15.0207331730769  3.38852163461538 14.4498197115385  2.59344951923077 13.73046875  C 1.79837740384615 13.0111177884615  1.16736778846154 12.1547475961538  0.700420673076923 11.1613581730769  C 0.233473557692308 10.16796875  0 9.1270032051282  0 8.03846153846154  C 0 6.94991987179487  0.233473557692308 5.90895432692308  0.700420673076923 4.91556490384615  C 1.16736778846154 3.92217548076923  1.79837740384615 3.06580528846154  2.59344951923077 2.34645432692308  C 3.38852163461538 1.62710336538462  4.33503605769231 1.05618990384615  5.43299278846154 0.633713942307693  C 6.53094951923077 0.21123798076923  7.68149038461539 0  8.88461538461539 0  C 10.0877403846154 0  11.23828125 0.21123798076923  12.3362379807692 0.633713942307693  C 13.4341947115385 1.05618990384615  14.3807091346154 1.62710336538462  15.17578125 2.34645432692308  C 15.9708533653846 3.06580528846154  16.6018629807692 3.92217548076923  17.0688100961538 4.91556490384615  C 17.5357572115385 5.90895432692308  17.7692307692308 6.94991987179487  17.7692307692308 8.03846153846154  C 17.7692307692308 9.71314102564103  17.2475961538462 11.2317708333333  16.2043269230769 12.5943509615385  L 20.5330528846154 16.5108173076923  Z " fill-rule="nonzero" fill="#333333" stroke="none" transform="matrix(1 0 0 1 1216 127 )" />
  </g>
</svg>