<?xml version="1.0" encoding="utf-8"?>
<svg version="1.1" xmlns:xlink="http://www.w3.org/1999/xlink" width="43px" height="41px" xmlns="http://www.w3.org/2000/svg">
  <g transform="matrix(1 0 0 1 -840 -107 )">
    <path d="M 26.37109375 25.14453125  C 28.6365184294872 22.9844751602564  29.7692307692308 20.385016025641  29.7692307692308 17.3461538461538  C 29.7692307692308 14.3072916666667  28.6365184294872 11.7078325320513  26.37109375 9.54777644230769  C 24.1056690705128 7.3877203525641  21.3794070512821 6.30769230769231  18.1923076923077 6.30769230769231  C 15.0052083333333 6.30769230769231  12.2789463141026 7.3877203525641  10.0135216346154 9.54777644230769  C 7.74809695512821 11.7078325320513  6.61538461538462 14.3072916666667  6.61538461538462 17.3461538461538  C 6.61538461538462 20.385016025641  7.74809695512821 22.9844751602564  10.0135216346154 25.14453125  C 12.2789463141026 27.3045873397436  15.0052083333333 28.3846153846154  18.1923076923077 28.3846153846154  C 21.3794070512821 28.3846153846154  24.1056690705128 27.3045873397436  26.37109375 25.14453125  Z M 42.0438701923077 35.6286057692308  C 42.6812900641026 36.2363782051282  43 36.9755608974359  43 37.8461538461538  C 43 38.7003205128205  42.6726762820513 39.4395032051282  42.0180288461538 40.0637019230769  C 41.3633814102564 40.6879006410256  40.588141025641 41  39.6923076923077 41  C 38.7620192307692 41  37.9867788461538 40.6879006410256  37.3665865384615 40.0637019230769  L 28.5030048076923 31.6370192307692  C 25.4192708333333 33.6738782051282  21.9823717948718 34.6923076923077  18.1923076923077 34.6923076923077  C 15.728766025641 34.6923076923077  13.3728966346154 34.2364783653846  11.1246995192308 33.3248197115385  C 8.87650240384615 32.4131610576923  6.93840144230769 31.1811899038462  5.31039663461539 29.62890625  C 3.68239182692308 28.0766225961538  2.39032451923077 26.2286658653846  1.43419471153846 24.0850360576923  C 0.478064903846154 21.94140625  0 19.6951121794872  0 17.3461538461538  C 0 14.9971955128205  0.478064903846154 12.7509014423077  1.43419471153846 10.6072716346154  C 2.39032451923077 8.46364182692308  3.68239182692308 6.61568509615385  5.31039663461539 5.06340144230769  C 6.93840144230769 3.51111778846154  8.87650240384615 2.27914663461538  11.1246995192308 1.36748798076923  C 13.3728966346154 0.455829326923076  15.728766025641 0  18.1923076923077 0  C 20.6558493589744 0  23.01171875 0.455829326923076  25.2599158653846 1.36748798076923  C 27.5081129807692 2.27914663461538  29.4462139423077 3.51111778846154  31.07421875 5.06340144230769  C 32.7022235576923 6.61568509615385  33.9942908653846 8.46364182692308  34.9504206730769 10.6072716346154  C 35.9065504807692 12.7509014423077  36.3846153846154 14.9971955128205  36.3846153846154 17.3461538461538  C 36.3846153846154 20.9599358974359  35.3165064102564 24.2369791666667  33.1802884615385 27.1772836538462  L 42.0438701923077 35.6286057692308  Z " fill-rule="nonzero" fill="#000000" stroke="none" transform="matrix(1 0 0 1 840 107 )" />
  </g>
</svg>