<?xml version="1.0" encoding="utf-8"?>
<svg version="1.1" xmlns:xlink="http://www.w3.org/1999/xlink" width="12px" height="12px" viewBox="738 418  12 12" xmlns="http://www.w3.org/2000/svg">
  <path d="M 744 418  C 747.36 418  750 420.64  750 424  C 750 427.36  747.36 430  744 430  C 740.64 430  738 427.36  738 424  C 738 420.64  740.64 418  744 418  Z " fill-rule="nonzero" fill="#ffffff" stroke="none" />
  <path d="M 744 418.5  C 747.08 418.5  749.5 420.92  749.5 424  C 749.5 427.08  747.08 429.5  744 429.5  C 740.92 429.5  738.5 427.08  738.5 424  C 738.5 420.92  740.92 418.5  744 418.5  Z " stroke-width="1" stroke="#797979" fill="none" />
  <path d="M 744 427  C 742.32 427  741 425.68  741 424  C 741 422.32  742.32 421  744 421  C 745.68 421  747 422.32  747 424  C 747 425.68  745.68 427  744 427  " fill-rule="nonzero" fill="#797979" stroke="none" />
</svg>