<?xml version="1.0" encoding="utf-8"?>
<svg version="1.1" xmlns:xlink="http://www.w3.org/1999/xlink" width="22px" height="28px" xmlns="http://www.w3.org/2000/svg">
  <g transform="matrix(1 0 0 1 -1324 -20 )">
    <path d="M 11.0000000000001 26.75  C 11.1410256410255 26.75  11.2115384615385 26.6666666666666  11.2115384615385 26.4999999999999  C 11.2115384615385 26.3333333333333  11.1410256410255 26.25  11.0000000000001 26.25  C 10.479967948718 26.25  10.0326522435897 26.0286458333334  9.65805288461528 25.5859375  C 9.28345352564109 25.1432291666667  9.09615384615383 24.6145833333333  9.09615384615383 24  C 9.09615384615383 23.8333333333334  9.02564102564109 23.75  8.88461538461528 23.75  C 8.7435897435897 23.75  8.67307692307696 23.8333333333334  8.67307692307696 24  C 8.67307692307696 24.7604166666667  8.90004006410259 25.4088541666667  9.35396634615383 25.9453125000001  C 9.80789262820518 26.4817708333333  10.3565705128206 26.75  11.0000000000001 26.75  Z M 20.796875 20.625  C 21.1582532051281 21.1041666666667  21.5592948717948 21.5625  22 22  C 22 22.5416666666667  21.8325320512821 23.0104166666667  21.4975961538462 23.40625  C 21.1626602564103 23.8020833333333  20.7660256410255 24  20.3076923076922 24  L 14.3846153846153 24  C 14.3846153846153 25.1041666666667  14.0540865384615 26.046875  13.3930288461538 26.828125  C 12.7319711538462 27.6093750000001  11.9342948717948 28  11.0000000000001 28  C 10.0657051282052 28  9.26802884615379 27.6093750000001  8.60697115384622 26.828125  C 7.94591346153853 26.046875  7.61538461538469 25.1041666666667  7.61538461538469 24  L 1.6923076923078 24  C 1.23397435897445 24  0.83733974358975 23.8020833333333  0.502403846153803 23.40625  C 0.167467948717856 23.0104166666667  0 22.5416666666667  0 22  C 0.440705128205163 21.5625  0.841746794871854 21.1041666666667  1.20312499999996 20.625  C 1.56450320512818 20.1458333333334  1.9391025641026 19.5234375  2.32692307692309 18.7578125  C 2.71474358974359 17.9921875  3.04306891025644 17.1666666666666  3.31189903846152 16.28125  C 3.58072916666661 15.3958333333334  3.80108173076925 14.3229166666667  3.97295673076921 13.0625  C 4.14483173076929 11.8020833333334  4.23076923076921 10.4479166666666  4.23076923076921 8.99999999999994  C 4.23076923076921 7.4166666666667  4.74639423076921 5.94531250000003  5.77764423076921 4.58593750000005  C 6.8088942307692 3.2265625  8.16185897435895 2.40104166666668  9.83653846153845 2.10937500000001  C 9.7660256410256 1.91145833333337  9.73076923076924 1.70833333333328  9.73076923076924 1.49999999999999  C 9.73076923076924 1.08333333333335  9.85416666666664 0.729166666666667  10.1009615384614 0.4375  C 10.3477564102565 0.145833333333333  10.6474358974359 0  11.0000000000001 0  C 11.3525641025641 0  11.6522435897435 0.145833333333333  11.8990384615386 0.4375  C 12.1458333333334 0.729166666666667  12.2692307692308 1.08333333333335  12.2692307692308 1.49999999999999  C 12.2692307692308 1.70833333333328  12.2339743589744 1.91145833333337  12.1634615384615 2.10937500000001  C 13.838141025641 2.40104166666668  15.1911057692308 3.2265625  16.2223557692308 4.58593750000005  C 17.2536057692308 5.94531250000003  17.7692307692308 7.4166666666667  17.7692307692308 8.99999999999994  C 17.7692307692308 10.4479166666666  17.8551682692307 11.8020833333334  18.0270432692308 13.0625  C 18.1989182692308 14.3229166666667  18.4192708333333 15.3958333333334  18.6881009615385 16.28125  C 18.9569310897436 17.1666666666666  19.2852564102564 17.9921875  19.6730769230769 18.7578125  C 20.0608974358974 19.5234375  20.4354967948718 20.1458333333334  20.796875 20.625  Z " fill-rule="nonzero" fill="#cccccc" stroke="none" transform="matrix(1 0 0 1 1324 20 )" />
  </g>
</svg>