<?xml version="1.0" encoding="utf-8"?>
<svg version="1.1" xmlns:xlink="http://www.w3.org/1999/xlink" width="180px" height="25px" xmlns="http://www.w3.org/2000/svg">
  <defs>
    <mask fill="white" id="clip76">
      <path d="M 0 25  L 0 0  L 19 0  L 136 0  L 180 0  L 180 25  L 0 25  Z " fill-rule="evenodd" />
    </mask>
  </defs>
  <g transform="matrix(1 0 0 1 -326 -220 )">
    <path d="M 0 25  L 0 0  L 19 0  L 136 0  L 180 0  L 180 25  L 0 25  Z " fill-rule="nonzero" fill="#36c2aa" stroke="none" transform="matrix(1 0 0 1 326 220 )" />
    <path d="M 0 25  L 0 0  L 19 0  L 136 0  L 180 0  L 180 25  L 0 25  Z " stroke-width="2" stroke="#797979" fill="none" transform="matrix(1 0 0 1 326 220 )" mask="url(#clip76)" />
  </g>
</svg>