<?xml version="1.0" encoding="utf-8"?>
<svg version="1.1" xmlns:xlink="http://www.w3.org/1999/xlink" width="42px" height="40px" xmlns="http://www.w3.org/2000/svg">
  <g transform="matrix(1 0 0 1 -837 -116 )">
    <path d="M 858 116  C 869.76 116  879 124.8  879 136  C 879 147.2  869.76 156  858 156  C 846.24 156  837 147.2  837 136  C 837 124.8  846.24 116  858 116  Z " fill-rule="nonzero" fill="#ffffff" stroke="none" />
    <path d="M 858 116.5  C 869.48 116.5  878.5 125.08  878.5 136  C 878.5 146.92  869.48 155.5  858 155.5  C 846.52 155.5  837.5 146.92  837.5 136  C 837.5 125.08  846.52 116.5  858 116.5  Z " stroke-width="1" stroke="#797979" fill="none" />
  </g>
</svg>