<?xml version="1.0" encoding="utf-8"?>
<svg version="1.1" xmlns:xlink="http://www.w3.org/1999/xlink" width="27px" height="25px" xmlns="http://www.w3.org/2000/svg">
  <g transform="matrix(1 0 0 1 -845 -124 )">
    <path d="M 26.3636363636364 18.6868686868687  C 26.7878787878788 19.0796857463524  27 19.5566778900112  27 20.1178451178451  C 27 20.679012345679  26.7878787878788 21.1560044893378  26.3636363636364 21.5488215488216  L 23.2727272727273 24.4107744107744  C 22.8484848484848 24.8035914702582  22.3333333333333 25  21.7272727272728 25  C 21.1212121212121 25  20.6060606060606 24.8035914702582  20.1818181818182 24.4107744107744  L 13.5 18.2239057239057  L 6.81818181818179 24.4107744107744  C 6.39393939393941 24.8035914702582  5.8787878787879 25  5.27272727272724 25  C 4.66666666666668 25  4.15151515151516 24.8035914702582  3.7272727272727 24.4107744107744  L 0.636363636363609 21.5488215488216  C 0.212121212121233 21.1560044893378  0 20.679012345679  0 20.1178451178451  C 0 19.5566778900112  0.212121212121233 19.0796857463524  0.636363636363609 18.6868686868687  L 7.31818181818182 12.5  L 0.636363636363609 6.31313131313133  C 0.212121212121233 5.9203142536476  0 5.44332210998879  0 4.88215488215485  C 0 4.320987654321  0.212121212121233 3.84399551066219  0.636363636363609 3.45117845117842  L 3.7272727272727 0.589225589225606  C 4.15151515151516 0.196408529741841  4.66666666666668 0  5.27272727272724 0  C 5.8787878787879 0  6.39393939393941 0.196408529741841  6.81818181818179 0.589225589225606  L 13.5 6.77609427609428  L 20.1818181818182 0.589225589225606  C 20.6060606060606 0.196408529741841  21.1212121212121 0  21.7272727272728 0  C 22.3333333333333 0  22.8484848484848 0.196408529741841  23.2727272727273 0.589225589225606  L 26.3636363636364 3.45117845117842  C 26.7878787878788 3.84399551066219  27 4.320987654321  27 4.88215488215485  C 27 5.44332210998879  26.7878787878788 5.9203142536476  26.3636363636364 6.31313131313133  L 19.6818181818182 12.5  L 26.3636363636364 18.6868686868687  Z " fill-rule="nonzero" fill="#a30014" stroke="none" transform="matrix(1 0 0 1 845 124 )" />
  </g>
</svg>