<?xml version="1.0" encoding="utf-8"?>
<svg version="1.1" xmlns:xlink="http://www.w3.org/1999/xlink" width="301px" height="30px" xmlns="http://www.w3.org/2000/svg">
  <defs>
    <mask fill="white" id="clip83">
      <path d="M 0 27  L 0 3  C 0 1.31999999999999  1.47155555555555 0  3.34444444444444 0  L 297.655555555556 0  C 299.528444444444 0  301 1.31999999999999  301 3  L 301 27  C 301 28.68  299.528444444444 30  297.655555555556 30  L 3.34444444444444 30  C 1.47155555555555 30  0 28.68  0 27  Z " fill-rule="evenodd" />
    </mask>
  </defs>
  <g transform="matrix(1 0 0 1 -618 -518 )">
    <path d="M 0 27  L 0 3  C 0 1.31999999999999  1.47155555555555 0  3.34444444444444 0  L 297.655555555556 0  C 299.528444444444 0  301 1.31999999999999  301 3  L 301 27  C 301 28.68  299.528444444444 30  297.655555555556 30  L 3.34444444444444 30  C 1.47155555555555 30  0 28.68  0 27  Z " fill-rule="nonzero" fill="#ffffff" stroke="none" transform="matrix(1 0 0 1 618 518 )" />
    <path d="M 0 27  L 0 3  C 0 1.31999999999999  1.47155555555555 0  3.34444444444444 0  L 297.655555555556 0  C 299.528444444444 0  301 1.31999999999999  301 3  L 301 27  C 301 28.68  299.528444444444 30  297.655555555556 30  L 3.34444444444444 30  C 1.47155555555555 30  0 28.68  0 27  Z " stroke-width="2" stroke="#999999" fill="none" transform="matrix(1 0 0 1 618 518 )" mask="url(#clip83)" />
  </g>
</svg>