<?xml version="1.0" encoding="utf-8"?>
<svg version="1.1" xmlns:xlink="http://www.w3.org/1999/xlink" width="108px" height="75px" xmlns="http://www.w3.org/2000/svg">
  <g transform="matrix(1 0 0 1 -596 -236 )">
    <path d="M 596 236  L 704 236  L 704 311  L 596 311  L 596 236  " fill-rule="nonzero" fill="#cccccc" stroke="none" />
    <path d="M 601 241  L 699 241  L 699 306  L 601 306  L 601 241  " fill-rule="nonzero" fill="#ffffff" stroke="none" />
    <path d="M 657.785 258.5  C 654.635 258.5  652.16 256.025  652.16 252.875  C 652.16 249.725  654.635 247.25  657.785 247.25  C 660.935 247.25  663.41 249.725  663.41 252.875  C 663.41 256.025  660.935 258.5  657.785 258.5  " fill-rule="nonzero" fill="#cccccc" stroke="none" />
    <path d="M 603 304  L 603 270.45  L 626.5 255.2  L 659.4 278.583333333333  L 678.2 264.35  L 697 278.583333333333  L 697 304  L 603 304  " fill-rule="nonzero" fill="#169bd5" stroke="none" />
  </g>
</svg>