<?xml version="1.0" encoding="utf-8"?>
<svg version="1.1" xmlns:xlink="http://www.w3.org/1999/xlink" width="22px" height="24px" xmlns="http://www.w3.org/2000/svg">
  <g transform="matrix(1 0 0 1 -1324 -17 )">
    <path d="M 11.0000000000001 22.9285714285714  C 11.1410256410255 22.9285714285714  11.2115384615385 22.8571428571428  11.2115384615385 22.7142857142857  C 11.2115384615385 22.5714285714286  11.1410256410255 22.5  11.0000000000001 22.5  C 10.479967948718 22.5  10.0326522435897 22.3102678571429  9.65805288461528 21.9308035714286  C 9.28345352564109 21.5513392857143  9.09615384615383 21.0982142857143  9.09615384615383 20.5714285714286  C 9.09615384615383 20.4285714285714  9.02564102564109 20.3571428571428  8.88461538461528 20.3571428571428  C 8.7435897435897 20.3571428571428  8.67307692307696 20.4285714285714  8.67307692307696 20.5714285714286  C 8.67307692307696 21.2232142857143  8.90004006410259 21.7790178571429  9.35396634615383 22.2388392857143  C 9.80789262820518 22.6986607142857  10.3565705128206 22.9285714285714  11.0000000000001 22.9285714285714  Z M 20.796875 17.6785714285714  C 21.1582532051281 18.0892857142857  21.5592948717948 18.4821428571428  22 18.8571428571428  C 22 19.3214285714286  21.8325320512821 19.7232142857143  21.4975961538462 20.0625  C 21.1626602564103 20.4017857142857  20.7660256410255 20.5714285714286  20.3076923076922 20.5714285714286  L 14.3846153846153 20.5714285714286  C 14.3846153846153 21.5178571428572  14.0540865384615 22.3258928571428  13.3930288461538 22.9955357142857  C 12.7319711538462 23.6651785714286  11.9342948717948 24  11.0000000000001 24  C 10.0657051282052 24  9.26802884615379 23.6651785714286  8.60697115384622 22.9955357142857  C 7.94591346153853 22.3258928571428  7.61538461538469 21.5178571428572  7.61538461538469 20.5714285714286  L 1.6923076923078 20.5714285714286  C 1.23397435897445 20.5714285714286  0.83733974358975 20.4017857142857  0.502403846153803 20.0625  C 0.167467948717856 19.7232142857143  0 19.3214285714286  0 18.8571428571428  C 0.440705128205163 18.4821428571428  0.841746794871854 18.0892857142857  1.20312499999996 17.6785714285714  C 1.56450320512818 17.2678571428572  1.9391025641026 16.734375  2.32692307692309 16.078125  C 2.71474358974359 15.421875  3.04306891025644 14.7142857142857  3.31189903846152 13.9553571428572  C 3.58072916666661 13.1964285714286  3.80108173076925 12.2767857142857  3.97295673076921 11.1964285714286  C 4.14483173076929 10.1160714285714  4.23076923076921 8.95535714285711  4.23076923076921 7.71428571428567  C 4.23076923076921 6.35714285714289  4.74639423076921 5.09598214285717  5.77764423076921 3.93080357142861  C 6.8088942307692 2.765625  8.16185897435895 2.05803571428572  9.83653846153845 1.80803571428572  C 9.7660256410256 1.63839285714289  9.73076923076924 1.46428571428567  9.73076923076924 1.28571428571428  C 9.73076923076924 0.928571428571445  9.85416666666664 0.625  10.1009615384614 0.375  C 10.3477564102565 0.125  10.6474358974359 0  11.0000000000001 0  C 11.3525641025641 0  11.6522435897435 0.125  11.8990384615386 0.375  C 12.1458333333334 0.625  12.2692307692308 0.928571428571445  12.2692307692308 1.28571428571428  C 12.2692307692308 1.46428571428567  12.2339743589744 1.63839285714289  12.1634615384615 1.80803571428572  C 13.838141025641 2.05803571428572  15.1911057692308 2.765625  16.2223557692308 3.93080357142861  C 17.2536057692308 5.09598214285717  17.7692307692308 6.35714285714289  17.7692307692308 7.71428571428567  C 17.7692307692308 8.95535714285711  17.8551682692307 10.1160714285714  18.0270432692308 11.1964285714286  C 18.1989182692308 12.2767857142857  18.4192708333333 13.1964285714286  18.6881009615385 13.9553571428572  C 18.9569310897436 14.7142857142857  19.2852564102564 15.421875  19.6730769230769 16.078125  C 20.0608974358974 16.734375  20.4354967948718 17.2678571428572  20.796875 17.6785714285714  Z " fill-rule="nonzero" fill="#cccccc" stroke="none" transform="matrix(1 0 0 1 1324 17 )" />
  </g>
</svg>