<?xml version="1.0" encoding="utf-8"?>
<svg version="1.1" xmlns:xlink="http://www.w3.org/1999/xlink" width="44px" height="44px" xmlns="http://www.w3.org/2000/svg">
  <g transform="matrix(1 0 0 1 -1083 -17 )">
    <path d="M 26.984375 26.984375  C 29.302483974359 24.666266025641  30.4615384615385 21.8766025641026  30.4615384615385 18.6153846153846  C 30.4615384615385 15.3541666666667  29.302483974359 12.5645032051282  26.984375 10.2463942307692  C 24.666266025641 7.92828525641025  21.8766025641026 6.76923076923077  18.6153846153846 6.76923076923077  C 15.3541666666667 6.76923076923077  12.5645032051282 7.92828525641025  10.2463942307692 10.2463942307692  C 7.92828525641026 12.5645032051282  6.76923076923077 15.3541666666667  6.76923076923077 18.6153846153846  C 6.76923076923077 21.8766025641026  7.92828525641026 24.666266025641  10.2463942307692 26.984375  C 12.5645032051282 29.302483974359  15.3541666666667 30.4615384615385  18.6153846153846 30.4615384615385  C 21.8766025641026 30.4615384615385  24.666266025641 29.302483974359  26.984375 26.984375  Z M 43.0216346153846 38.2355769230769  C 43.6738782051282 38.8878205128205  44 39.6810897435897  44 40.6153846153846  C 44 41.5320512820513  43.6650641025641 42.3253205128205  42.9951923076923 42.9951923076923  C 42.3253205128205 43.6650641025641  41.5320512820513 44  40.6153846153846 44  C 39.6634615384615 44  38.8701923076923 43.6650641025641  38.2355769230769 42.9951923076923  L 29.1658653846154 33.9519230769231  C 26.0104166666667 36.1378205128205  22.4935897435897 37.2307692307692  18.6153846153846 37.2307692307692  C 16.0945512820513 37.2307692307692  13.6838942307692 36.7415865384615  11.3834134615385 35.7632211538462  C 9.08293269230769 34.7848557692308  7.09975961538462 33.4627403846154  5.43389423076923 31.796875  C 3.76802884615385 30.1310096153846  2.44591346153846 28.1478365384615  1.46754807692308 25.8473557692308  C 0.489182692307692 23.546875  0 21.1362179487179  0 18.6153846153846  C 0 16.0945512820513  0.489182692307692 13.6838942307692  1.46754807692308 11.3834134615385  C 2.44591346153846 9.08293269230769  3.76802884615385 7.09975961538462  5.43389423076923 5.43389423076923  C 7.09975961538462 3.76802884615385  9.08293269230769 2.44591346153846  11.3834134615385 1.46754807692308  C 13.6838942307692 0.489182692307691  16.0945512820513 0  18.6153846153846 0  C 21.1362179487179 0  23.546875 0.489182692307691  25.8473557692308 1.46754807692308  C 28.1478365384615 2.44591346153846  30.1310096153846 3.76802884615385  31.796875 5.43389423076923  C 33.4627403846154 7.09975961538462  34.7848557692308 9.08293269230769  35.7632211538462 11.3834134615385  C 36.7415865384615 13.6838942307692  37.2307692307692 16.0945512820513  37.2307692307692 18.6153846153846  C 37.2307692307692 22.4935897435897  36.1378205128205 26.0104166666667  33.9519230769231 29.1658653846154  L 43.0216346153846 38.2355769230769  Z " fill-rule="nonzero" fill="#000000" stroke="none" transform="matrix(1 0 0 1 1083 17 )" />
  </g>
</svg>