<?xml version="1.0" encoding="utf-8"?>
<svg version="1.1" xmlns:xlink="http://www.w3.org/1999/xlink" width="28px" height="34px" xmlns="http://www.w3.org/2000/svg">
  <g transform="matrix(1 0 0 1 -698 -546 )">
    <path d="M 21.0729166666667 1.29017857142857  L 26.7604166666667 7.20982142857143  C 27.1006944444444 7.56398809523809  27.3923611111111 8.04464285714286  27.6354166666667 8.65178571428571  C 27.8784722222222 9.25892857142857  28 9.81547619047619  28 10.3214285714286  L 28 32.1785714285714  C 28 32.6845238095238  27.8298611111111 33.1145833333333  27.4895833333333 33.46875  C 27.1493055555556 33.8229166666667  26.7361111111111 34  26.25 34  L 1.75 34  C 1.26388888888889 34  0.850694444444445 33.8229166666667  0.510416666666667 33.46875  C 0.170138888888889 33.1145833333333  0 32.6845238095238  0 32.1785714285714  L 0 1.82142857142857  C 0 1.31547619047619  0.170138888888889 0.885416666666665  0.510416666666667 0.53125  C 0.850694444444445 0.177083333333335  1.26388888888889 0  1.75 0  L 18.0833333333333 0  C 18.5694444444444 0  19.1041666666667 0.126488095238097  19.6875 0.379464285714286  C 20.2708333333333 0.632440476190476  20.7326388888889 0.936011904761903  21.0729166666667 1.29017857142857  Z M 19.4140625 2.99776785714286  C 19.2682291666667 2.84598214285714  19.0190972222222 2.70684523809523  18.6666666666667 2.58035714285714  L 18.6666666666667 9.71428571428571  L 25.5208333333333 9.71428571428571  C 25.3993055555556 9.34747023809523  25.265625 9.08816964285714  25.1197916666667 8.93638392857143  L 19.4140625 2.99776785714286  Z M 2.33333333333333 31  L 25.6666666666667 31  L 25.6666666666667 12.1428571428571  L 18.0833333333333 12.1428571428571  C 17.5972222222222 12.1428571428571  17.1840277777778 11.9657738095238  16.84375 11.6116071428571  C 16.5034722222222 11.2574404761905  16.3333333333333 10.8273809523809  16.3333333333333 10.3214285714286  L 16.3333333333333 3  L 2.33333333333333 3  L 2.33333333333333 31  Z M 17.5 17  L 23.3333333333333 23.0714285714286  L 23.3333333333333 29  L 4.66666666666667 29  L 4.66666666666667 25.5  L 8.16666666666667 21.8571428571429  L 10.5 24.2857142857143  L 17.5 17  Z M 10.6458333333333 18.3660714285714  C 9.96527777777778 19.0744047619048  9.13888888888889 19.4285714285714  8.16666666666667 19.4285714285714  C 7.19444444444445 19.4285714285714  6.36805555555556 19.0744047619048  5.6875 18.3660714285714  C 5.00694444444444 17.6577380952381  4.66666666666667 16.797619047619  4.66666666666667 15.7857142857143  C 4.66666666666667 14.7738095238095  5.00694444444444 13.9136904761905  5.6875 13.2053571428571  C 6.36805555555556 12.4970238095238  7.19444444444445 12.1428571428571  8.16666666666667 12.1428571428571  C 9.13888888888889 12.1428571428571  9.96527777777778 12.4970238095238  10.6458333333333 13.2053571428571  C 11.3263888888889 13.9136904761905  11.6666666666667 14.7738095238095  11.6666666666667 15.7857142857143  C 11.6666666666667 16.797619047619  11.3263888888889 17.6577380952381  10.6458333333333 18.3660714285714  Z " fill-rule="nonzero" fill="#000000" stroke="none" transform="matrix(1 0 0 1 698 546 )" />
  </g>
</svg>