<?xml version="1.0" encoding="utf-8"?>
<svg version="1.1" xmlns:xlink="http://www.w3.org/1999/xlink" width="52px" height="50px" xmlns="http://www.w3.org/2000/svg">
  <g transform="matrix(1 0 0 1 -673 -617 )">
    <path d="M 40.5234375 28.5481770833333  C 40.9522569444444 28.1358506944444  41.1666666666667 27.6475694444444  41.1666666666667 27.0833333333333  L 41.1666666666667 22.9166666666667  C 41.1666666666667 22.3524305555556  40.9522569444444 21.8641493055556  40.5234375 21.4518229166667  C 40.0946180555556 21.0394965277778  39.5868055555556 20.8333333333333  39 20.8333333333333  L 30.3333333333333 20.8333333333333  L 30.3333333333333 12.5  C 30.3333333333333 11.9357638888889  30.1189236111111 11.4474826388889  29.6901041666667 11.03515625  C 29.2612847222222 10.6228298611111  28.7534722222222 10.4166666666667  28.1666666666667 10.4166666666667  L 23.8333333333333 10.4166666666667  C 23.2465277777778 10.4166666666667  22.7387152777778 10.6228298611111  22.3098958333333 11.03515625  C 21.8810763888889 11.4474826388889  21.6666666666667 11.9357638888889  21.6666666666667 12.5  L 21.6666666666667 20.8333333333333  L 13 20.8333333333333  C 12.4131944444444 20.8333333333333  11.9053819444444 21.0394965277778  11.4765625 21.4518229166667  C 11.0477430555556 21.8641493055556  10.8333333333333 22.3524305555556  10.8333333333333 22.9166666666667  L 10.8333333333333 27.0833333333333  C 10.8333333333333 27.6475694444444  11.0477430555556 28.1358506944444  11.4765625 28.5481770833333  C 11.9053819444444 28.9605034722222  12.4131944444444 29.1666666666667  13 29.1666666666667  L 21.6666666666667 29.1666666666667  L 21.6666666666667 37.5  C 21.6666666666667 38.0642361111111  21.8810763888889 38.5525173611111  22.3098958333333 38.96484375  C 22.7387152777778 39.3771701388889  23.2465277777778 39.5833333333333  23.8333333333333 39.5833333333333  L 28.1666666666667 39.5833333333333  C 28.7534722222222 39.5833333333333  29.2612847222222 39.3771701388889  29.6901041666667 38.96484375  C 30.1189236111111 38.5525173611111  30.3333333333333 38.0642361111111  30.3333333333333 37.5  L 30.3333333333333 29.1666666666667  L 39 29.1666666666667  C 39.5868055555556 29.1666666666667  40.0946180555556 28.9605034722222  40.5234375 28.5481770833333  Z M 48.5130208333333 12.451171875  C 50.8376736111111 16.2814670138889  52 20.4644097222222  52 25  C 52 29.5355902777778  50.8376736111111 33.7185329861111  48.5130208333333 37.548828125  C 46.1883680555556 41.3791232638889  43.0342881944444 44.4118923611111  39.05078125 46.6471354166667  C 35.0672743055556 48.8823784722222  30.7170138888889 50  26 50  C 21.2829861111111 50  16.9327256944444 48.8823784722222  12.94921875 46.6471354166667  C 8.96571180555556 44.4118923611111  5.81163194444444 41.3791232638889  3.48697916666667 37.548828125  C 1.16232638888889 33.7185329861111  0 29.5355902777778  0 25  C 0 20.4644097222222  1.16232638888889 16.2814670138889  3.48697916666667 12.451171875  C 5.81163194444444 8.62087673611111  8.96571180555556 5.58810763888888  12.94921875 3.35286458333333  C 16.9327256944444 1.11762152777777  21.2829861111111 0  26 0  C 30.7170138888889 0  35.0672743055556 1.11762152777777  39.05078125 3.35286458333333  C 43.0342881944444 5.58810763888888  46.1883680555556 8.62087673611111  48.5130208333333 12.451171875  Z " fill-rule="nonzero" fill="#000000" stroke="none" transform="matrix(1 0 0 1 673 617 )" />
  </g>
</svg>