<?xml version="1.0" encoding="utf-8"?>
<svg version="1.1" xmlns:xlink="http://www.w3.org/1999/xlink" width="25px" height="25px" viewBox="98 361  25 25" xmlns="http://www.w3.org/2000/svg">
  <path d="M 110.5 361  C 117.5 361  123 366.5  123 373.5  C 123 380.5  117.5 386  110.5 386  C 103.5 386  98 380.5  98 373.5  C 98 366.5  103.5 361  110.5 361  Z " fill-rule="nonzero" fill="#ffffff" stroke="none" />
  <path d="M 110.5 361.5  C 117.22 361.5  122.5 366.78  122.5 373.5  C 122.5 380.22  117.22 385.5  110.5 385.5  C 103.78 385.5  98.5 380.22  98.5 373.5  C 98.5 366.78  103.78 361.5  110.5 361.5  Z " stroke-width="1" stroke="#797979" fill="none" />
  <path d="M 110.5 379.75  C 107 379.75  104.25 377  104.25 373.5  C 104.25 370  107 367.25  110.5 367.25  C 114 367.25  116.75 370  116.75 373.5  C 116.75 377  114 379.75  110.5 379.75  " fill-rule="nonzero" fill="#797979" stroke="none" />
</svg>