<?xml version="1.0" encoding="utf-8"?>
<svg version="1.1" xmlns:xlink="http://www.w3.org/1999/xlink" width="25px" height="25px" viewBox="98 448  25 25" xmlns="http://www.w3.org/2000/svg">
  <path d="M 110.5 448  C 117.5 448  123 453.5  123 460.5  C 123 467.5  117.5 473  110.5 473  C 103.5 473  98 467.5  98 460.5  C 98 453.5  103.5 448  110.5 448  Z " fill-rule="nonzero" fill="#ffffff" stroke="none" />
  <path d="M 110.5 448.5  C 117.22 448.5  122.5 453.78  122.5 460.5  C 122.5 467.22  117.22 472.5  110.5 472.5  C 103.78 472.5  98.5 467.22  98.5 460.5  C 98.5 453.78  103.78 448.5  110.5 448.5  Z " stroke-width="1" stroke="#797979" fill="none" />
  <path d="M 110.5 466.75  C 107 466.75  104.25 464  104.25 460.5  C 104.25 457  107 454.25  110.5 454.25  C 114 454.25  116.75 457  116.75 460.5  C 116.75 464  114 466.75  110.5 466.75  " fill-rule="nonzero" fill="#797979" stroke="none" />
</svg>