<?xml version="1.0" encoding="utf-8"?>
<svg version="1.1" xmlns:xlink="http://www.w3.org/1999/xlink" width="25px" height="25px" viewBox="98 271  25 25" xmlns="http://www.w3.org/2000/svg">
  <path d="M 110.5 271  C 117.5 271  123 276.5  123 283.5  C 123 290.5  117.5 296  110.5 296  C 103.5 296  98 290.5  98 283.5  C 98 276.5  103.5 271  110.5 271  Z " fill-rule="nonzero" fill="#ffffff" stroke="none" />
  <path d="M 110.5 271.5  C 117.22 271.5  122.5 276.78  122.5 283.5  C 122.5 290.22  117.22 295.5  110.5 295.5  C 103.78 295.5  98.5 290.22  98.5 283.5  C 98.5 276.78  103.78 271.5  110.5 271.5  Z " stroke-width="1" stroke="#797979" fill="none" />
  <path d="M 110.5 289.75  C 107 289.75  104.25 287  104.25 283.5  C 104.25 280  107 277.25  110.5 277.25  C 114 277.25  116.75 280  116.75 283.5  C 116.75 287  114 289.75  110.5 289.75  " fill-rule="nonzero" fill="#797979" stroke="none" />
</svg>