<?xml version="1.0" encoding="utf-8"?>
<svg version="1.1" xmlns:xlink="http://www.w3.org/1999/xlink" width="25px" height="25px" viewBox="98 539  25 25" xmlns="http://www.w3.org/2000/svg">
  <path d="M 110.5 539  C 117.5 539  123 544.5  123 551.5  C 123 558.5  117.5 564  110.5 564  C 103.5 564  98 558.5  98 551.5  C 98 544.5  103.5 539  110.5 539  Z " fill-rule="nonzero" fill="#ffffff" stroke="none" />
  <path d="M 110.5 539.5  C 117.22 539.5  122.5 544.78  122.5 551.5  C 122.5 558.22  117.22 563.5  110.5 563.5  C 103.78 563.5  98.5 558.22  98.5 551.5  C 98.5 544.78  103.78 539.5  110.5 539.5  Z " stroke-width="1" stroke="#797979" fill="none" />
  <path d="M 110.5 557.75  C 107 557.75  104.25 555  104.25 551.5  C 104.25 548  107 545.25  110.5 545.25  C 114 545.25  116.75 548  116.75 551.5  C 116.75 555  114 557.75  110.5 557.75  " fill-rule="nonzero" fill="#797979" stroke="none" />
</svg>