<?xml version="1.0" encoding="utf-8"?>
<svg version="1.1" xmlns:xlink="http://www.w3.org/1999/xlink" width="149px" height="35px" xmlns="http://www.w3.org/2000/svg">
  <defs>
    <mask fill="white" id="clip24">
      <path d="M 0 35  L 0 0  L 94.2307692307692 0  L 105.769230769231 0  L 149 0  L 149 35  L 109.615384615385 35  L 0 35  Z " fill-rule="evenodd" />
    </mask>
  </defs>
  <g transform="matrix(1 0 0 1 0 -65 )">
    <path d="M 0 35  L 0 0  L 94.2307692307692 0  L 105.769230769231 0  L 149 0  L 149 35  L 109.615384615385 35  L 0 35  Z " fill-rule="nonzero" fill="#ffffff" stroke="none" transform="matrix(1 0 0 1 0 65 )" />
    <path d="M 0 35  L 0 0  L 94.2307692307692 0  L 105.769230769231 0  L 149 0  L 149 35  L 109.615384615385 35  L 0 35  Z " stroke-width="2" stroke="#ffffff" fill="none" transform="matrix(1 0 0 1 0 65 )" mask="url(#clip24)" />
  </g>
</svg>