<?xml version="1.0" encoding="utf-8"?>
<svg version="1.1" xmlns:xlink="http://www.w3.org/1999/xlink" width="15px" height="21px" xmlns="http://www.w3.org/2000/svg">
  <g transform="matrix(1 0 0 1 -577 -249 )">
    <path d="M 9.13583252190847 20.8583096590909  C 9.04333008763389 20.9527698863636  8.93378773125609 21  8.80720545277507 21  L 6.29503407984421 21  C 6.16845180136319 21  6.0589094449854 20.9552556818182  5.96640701071081 20.8657670454545  C 5.87390457643622 20.7762784090909  5.82765335929893 20.6619318181818  5.82765335929893 20.5227272727273  L 5.82765335929893 15.6008522727273  L 1.62122687439143 15.6008522727273  C 1.49464459591042 15.6008522727273  1.38510223953262 15.5561079545455  1.29259980525803 15.4666193181818  C 1.20009737098345 15.3771306818182  1.15384615384615 15.2627840909091  1.15384615384615 15.1235795454545  L 1.15384615384615 13.5873579545455  C 1.15384615384615 13.4580965909091  1.20009737098345 13.3462357954545  1.29259980525803 13.2517755681818  C 1.38510223953262 13.1573153409091  1.49464459591042 13.1100852272727  1.62122687439143 13.1100852272727  L 5.82765335929893 13.1100852272727  L 5.82765335929893 11.8423295454545  L 1.62122687439143 11.8423295454545  C 1.49464459591042 11.8423295454545  1.38510223953262 11.7975852272727  1.29259980525803 11.7080965909091  C 1.20009737098345 11.6186079545455  1.15384615384615 11.5042613636364  1.15384615384615 11.3650568181818  L 1.15384615384615 9.81392045454545  C 1.15384615384615 9.68465909090909  1.20009737098345 9.57279829545455  1.29259980525803 9.47833806818182  C 1.38510223953262 9.38387784090909  1.49464459591042 9.33664772727273  1.62122687439143 9.33664772727273  L 4.74683544303798 9.33664772727273  L 0.0584225900681597 0.71590909090909  C -0.0194741966893866 0.556818181818181  -0.0194741966893866 0.39772727272727  0.0584225900681597 0.238636363636363  C 0.155793573515093 0.0795454545454545  0.292112950340798 0  0.467380720545278 0  L 3.30087633885102 0  C 3.4858812074002 0  3.62706913339825 0.0894886363636366  3.72444011684518 0.26846590909091  L 6.86465433300876 6.60724431818182  C 7.04965920155794 6.98508522727272  7.32229795520935 7.60653409090909  7.682570593963 8.47159090909091  C 7.77994157740993 8.23295454545454  7.9284323271665 7.89488636363636  8.12804284323272 7.45738636363636  C 8.32765335929893 7.01988636363636  8.46153846153846 6.71661931818182  8.52969814995132 6.54758522727273  L 11.3193768257059 0.283380681818183  C 11.3972736124635 0.0944602272727253  11.5384615384615 0  11.7429406037001 0  L 14.5326192794547 0  C 14.6981499513145 0  14.8296007789679 0.0795454545454545  14.9269717624148 0.238636363636363  C 15.014605647517 0.377840909090908  15.0194741966894 0.531960227272726  14.9415774099318 0.700994318181817  L 10.3700097370983 9.33664772727273  L 13.5102239532619 9.33664772727273  C 13.6368062317429 9.33664772727273  13.7463485881207 9.38387784090909  13.8388510223953 9.47833806818182  C 13.9313534566699 9.57279829545455  13.9776046738072 9.68465909090909  13.9776046738072 9.81392045454545  L 13.9776046738072 11.3650568181818  C 13.9776046738072 11.5042613636364  13.9313534566699 11.6186079545455  13.8388510223953 11.7080965909091  C 13.7463485881207 11.7975852272727  13.6368062317429 11.8423295454545  13.5102239532619 11.8423295454545  L 9.27458617332035 11.8423295454545  L 9.27458617332035 13.1100852272727  L 13.5102239532619 13.1100852272727  C 13.6368062317429 13.1100852272727  13.7463485881207 13.1573153409091  13.8388510223953 13.2517755681818  C 13.9313534566699 13.3462357954545  13.9776046738072 13.4580965909091  13.9776046738072 13.5873579545455  L 13.9776046738072 15.1235795454545  C 13.9776046738072 15.2627840909091  13.9313534566699 15.3771306818182  13.8388510223953 15.4666193181818  C 13.7463485881207 15.5561079545455  13.6368062317429 15.6008522727273  13.5102239532619 15.6008522727273  L 9.27458617332035 15.6008522727273  L 9.27458617332035 20.5227272727273  C 9.27458617332035 20.6519886363636  9.22833495618306 20.7638494318182  9.13583252190847 20.8583096590909  Z " fill-rule="nonzero" fill="#000000" stroke="none" transform="matrix(1 0 0 1 577 249 )" />
  </g>
</svg>