<?xml version="1.0" encoding="utf-8"?>
<svg version="1.1" xmlns:xlink="http://www.w3.org/1999/xlink" width="12px" height="12px" viewBox="761 414  12 12" xmlns="http://www.w3.org/2000/svg">
  <path d="M 767 414  C 770.36 414  773 416.64  773 420  C 773 423.36  770.36 426  767 426  C 763.64 426  761 423.36  761 420  C 761 416.64  763.64 414  767 414  Z " fill-rule="nonzero" fill="#ffffff" stroke="none" />
  <path d="M 767 414.5  C 770.08 414.5  772.5 416.92  772.5 420  C 772.5 423.08  770.08 425.5  767 425.5  C 763.92 425.5  761.5 423.08  761.5 420  C 761.5 416.92  763.92 414.5  767 414.5  Z " stroke-width="1" stroke="#797979" fill="none" />
  <path d="M 767 423  C 765.32 423  764 421.68  764 420  C 764 418.32  765.32 417  767 417  C 768.68 417  770 418.32  770 420  C 770 421.68  768.68 423  767 423  " fill-rule="nonzero" fill="#797979" stroke="none" />
</svg>