<?xml version="1.0" encoding="utf-8"?>
<svg version="1.1" xmlns:xlink="http://www.w3.org/1999/xlink" width="38px" height="20px" xmlns="http://www.w3.org/2000/svg">
  <defs>
    <mask fill="white" id="clip39">
      <path d="M 0 15  L 0 5  C 0 2.2  2.19999999999999 0  5 0  L 22 0  L 33 0  C 35.8 0  38 2.2  38 5  L 38 15  C 38 17.8  35.8 20  33 20  L 5 20  C 2.19999999999999 20  0 17.8  0 15  Z " fill-rule="evenodd" />
    </mask>
  </defs>
  <g transform="matrix(1 0 0 1 -1025 -185 )">
    <path d="M 0 15  L 0 5  C 0 2.2  2.19999999999999 0  5 0  L 22 0  L 33 0  C 35.8 0  38 2.2  38 5  L 38 15  C 38 17.8  35.8 20  33 20  L 5 20  C 2.19999999999999 20  0 17.8  0 15  Z " fill-rule="nonzero" fill="#36c2aa" stroke="none" transform="matrix(1 0 0 1 1025 185 )" />
    <path d="M 0 15  L 0 5  C 0 2.2  2.19999999999999 0  5 0  L 22 0  L 33 0  C 35.8 0  38 2.2  38 5  L 38 15  C 38 17.8  35.8 20  33 20  L 5 20  C 2.19999999999999 20  0 17.8  0 15  Z " stroke-width="2" stroke="#797979" fill="none" transform="matrix(1 0 0 1 1025 185 )" mask="url(#clip39)" />
  </g>
</svg>