<?xml version="1.0" encoding="utf-8"?>
<svg version="1.1" xmlns:xlink="http://www.w3.org/1999/xlink" width="1299px" height="677px" xmlns="http://www.w3.org/2000/svg">
  <defs>
    <mask fill="white" id="clip35">
      <path d="M 0 667  L 0 0  L 1289 0  L 1289 667  L 594.721544715447 667  L 593.508619391749 667  L 0 667  Z " fill-rule="evenodd" />
    </mask>
    <filter x="224px" y="190px" width="1299px" height="677px" filterUnits="userSpaceOnUse" id="filter36">
      <feOffset dx="5" dy="5" in="SourceAlpha" result="shadowOffsetInner" />
      <feGaussianBlur stdDeviation="2.5" in="shadowOffsetInner" result="shadowGaussian" />
      <feComposite in2="shadowGaussian" operator="atop" in="SourceAlpha" result="shadowComposite" />
      <feColorMatrix type="matrix" values="0 0 0 0 0  0 0 0 0 0  0 0 0 0 0  0 0 0 0.349019607843137 0  " in="shadowComposite" />
    </filter>
    <g id="widget37">
      <path d="M 0 667  L 0 0  L 1289 0  L 1289 667  L 594.721544715447 667  L 593.508619391749 667  L 0 667  Z " fill-rule="nonzero" fill="#ffffff" stroke="none" transform="matrix(1 0 0 1 224 190 )" />
      <path d="M 0 667  L 0 0  L 1289 0  L 1289 667  L 594.721544715447 667  L 593.508619391749 667  L 0 667  Z " stroke-width="2" stroke="#797979" fill="none" transform="matrix(1 0 0 1 224 190 )" mask="url(#clip35)" />
    </g>
  </defs>
  <g transform="matrix(1 0 0 1 -224 -190 )">
    <use xlink:href="#widget37" filter="url(#filter36)" />
    <use xlink:href="#widget37" />
  </g>
</svg>